<svg width="64" height="64" viewBox="0 0 64 64" fill="none" xmlns="http://www.w3.org/2000/svg">
  <rect x="6" y="6" width="52" height="52" rx="12" fill="#54a09b"/>
  <rect x="6" y="6" width="52" height="18" rx="9" fill="#000080"/>
  <g fill="#fb6163">
    <rect x="16" y="30" width="12" height="12" rx="3"/>
    <rect x="36" y="30" width="12" height="12" rx="3"/>
    <rect x="16" y="46" width="12" height="12" rx="3"/>
    <rect x="36" y="46" width="12" height="12" rx="3"/>
  </g>
  <path d="M22 36H26M24 34V38" stroke="#ffffff" stroke-width="3" stroke-linecap="round"/>
  <path d="M40 36H44" stroke="#ffffff" stroke-width="3" stroke-linecap="round"/>
  <path d="M22 52L26 48M22 48L26 52" stroke="#ffffff" stroke-width="3" stroke-linecap="round"/>
  <path d="M38 48C40.2091 48 42 49.7909 42 52C42 54.2091 40.2091 56 38 56C35.7909 56 34 54.2091 34 52C34 49.7909 35.7909 48 38 48Z" stroke="#ffffff" stroke-width="3"/>
  <path d="M38 52H42M34 52H38" stroke="#ffffff" stroke-width="3" stroke-linecap="round"/>
</svg>
