<svg width="128" height="128" viewBox="0 0 128 128" fill="none" xmlns="http://www.w3.org/2000/svg">
  <defs>
    <linearGradient id="gradFace" x1="16" y1="16" x2="112" y2="112" gradientUnits="userSpaceOnUse">
      <stop offset="0" stop-color="#54a09b"/>
      <stop offset="1" stop-color="#000080"/>
    </linearGradient>
  </defs>
  <rect x="16" y="16" width="96" height="96" rx="24" fill="url(#gradFace)"/>
  <rect x="16" y="16" width="96" height="36" rx="18" fill="#000080"/>
  <g fill="#fb6163">
    <rect x="32" y="60" width="20" height="20" rx="6"/>
    <rect x="76" y="60" width="20" height="20" rx="6"/>
    <rect x="32" y="92" width="20" height="20" rx="6"/>
    <rect x="76" y="92" width="20" height="20" rx="6"/>
  </g>
  <path d="M42 68H52M47 63V73" stroke="#ffffff" stroke-width="4" stroke-linecap="round"/>
  <path d="M86 68H96" stroke="#ffffff" stroke-width="4" stroke-linecap="round"/>
  <path d="M42 102L50 94M42 94L50 102" stroke="#ffffff" stroke-width="4" stroke-linecap="round"/>
  <path d="M84 96C88.4183 96 92 99.5817 92 104C92 108.418 88.4183 112 84 112C79.5817 112 76 108.418 76 104C76 99.5817 79.5817 96 84 96Z" stroke="#ffffff" stroke-width="4"/>
  <path d="M84 104H92M76 104H84" stroke="#ffffff" stroke-width="4" stroke-linecap="round"/>
</svg>
