<svg width="164" height="56" viewBox="0 0 164 56" fill="none" xmlns="http://www.w3.org/2000/svg">
  <defs>
    <linearGradient id="lgGlow" x1="0" y1="0" x2="164" y2="56" gradientUnits="userSpaceOnUse">
      <stop offset="0" stop-color="#54a09b"/>
      <stop offset="1" stop-color="#000080"/>
    </linearGradient>
    <filter id="fGlow" x="-20" y="-20" width="204" height="96" filterUnits="userSpaceOnUse" color-interpolation-filters="sRGB">
      <feGaussianBlur stdDeviation="12" result="blur"/>
      <feFlood flood-color="#54a09b" flood-opacity="0.35"/>
      <feComposite in2="blur" operator="in"/>
      <feComposite in="SourceGraphic"/>
    </filter>
  </defs>
  <g filter="url(#fGlow)">
    <rect x="4" y="4" width="48" height="48" rx="12" fill="#54a09b"/>
    <rect x="4" y="4" width="48" height="20" rx="12" fill="#000080"/>
    <rect x="62" y="10" width="94" height="36" rx="18" fill="url(#lgGlow)"/>
    <g fill="#fb6163">
      <rect x="14" y="26" width="12" height="12" rx="3"/>
      <rect x="32" y="26" width="12" height="12" rx="3"/>
      <rect x="14" y="44" width="12" height="12" rx="3"/>
      <rect x="32" y="44" width="12" height="12" rx="3"/>
    </g>
    <path d="M20 32H20M20 32H24M20 28V36" stroke="#ffffff" stroke-width="2.5" stroke-linecap="round"/>
    <path d="M36 32H40" stroke="#ffffff" stroke-width="2.5" stroke-linecap="round"/>
    <path d="M20 50L24 46M20 46L24 50" stroke="#ffffff" stroke-width="2.5" stroke-linecap="round"/>
    <path d="M36 48C37.6569 48 39 49.3431 39 51C39 52.6569 37.6569 54 36 54C34.3431 54 33 52.6569 33 51C33 49.3431 34.3431 48 36 48Z" stroke="#ffffff" stroke-width="2.5"/>
    <path d="M36 51H39M33 51H36" stroke="#ffffff" stroke-width="2.5" stroke-linecap="round"/>
    <text x="74" y="34" fill="#ffffff" font-family="'Inter', 'Arial', sans-serif" font-size="16" font-weight="700">Llogaritësi</text>
    <text x="74" y="46" fill="#ffffff" font-family="'Inter', 'Arial', sans-serif" font-size="11" font-weight="500">i Pagës dhe Taksave</text>
  </g>
</svg>
